M48
; DRILL file KiCad 10.0.3 date 2026-06-28T01:32:45
; FORMAT={-:-/ absolute / metric / decimal}
; #@! TF.CreationDate,2026-06-28T01:32:45-04:00
; #@! TF.GenerationSoftware,Kicad,Pcbnew,10.0.3
; #@! TF.FileFunction,Plated,1,2,PTH
FMAT,2
METRIC
; #@! TA.AperFunction,Plated,PTH,ComponentDrill
T1C0.800
; #@! TA.AperFunction,Plated,PTH,ComponentDrill
T2C1.000
; #@! TA.AperFunction,Plated,PTH,ComponentDrill
T3C1.500
%
G90
G05
T1
X122.0Y-115.19
X122.0Y-122.81
X146.19Y-92.0
X146.19Y-127.5
X153.81Y-92.0
X153.81Y-127.5
X177.5Y-115.68
X177.5Y-123.3
T2
X123.25Y-97.0
X123.25Y-99.5
X123.25Y-102.0
X123.5Y-80.19
X123.5Y-82.73
X123.5Y-85.27
X123.5Y-87.81
X137.75Y-97.0
X137.75Y-102.0
X168.508Y-91.365
X168.508Y-106.615
X171.048Y-91.365
X171.048Y-106.615
X173.588Y-91.365
X173.588Y-106.615
X176.128Y-91.365
X176.128Y-106.615
X178.668Y-91.365
X178.668Y-106.615
X181.208Y-91.365
X181.208Y-106.615
X183.748Y-91.365
X183.748Y-106.615
T3
X127.0Y-116.84
X133.35Y-114.3
X146.05Y-97.79
X146.05Y-116.84
X152.4Y-95.25
X152.4Y-114.3
X165.1Y-116.84
X171.45Y-114.3
T3
G00X130.1Y-93.9
M15
G01X131.4Y-93.9
M16
G05
G00X130.1Y-105.1
M15
G01X131.4Y-105.1
M16
G05
M30
