%TF.GenerationSoftware,KiCad,Pcbnew,10.0.3*%
%TF.CreationDate,2026-06-28T01:32:40-04:00*%
%TF.ProjectId,kicad-hackpad-schematic,6b696361-642d-4686-9163-6b7061642d73,rev?*%
%TF.SameCoordinates,Original*%
%TF.FileFunction,Soldermask,Top*%
%TF.FilePolarity,Negative*%
%FSLAX46Y46*%
G04 Gerber Fmt 4.6, Leading zero omitted, Abs format (unit mm)*
G04 Created by KiCad (PCBNEW 10.0.3) date 2026-06-28 01:32:40*
%MOMM*%
%LPD*%
G01*
G04 APERTURE LIST*
G04 Aperture macros list*
%AMRoundRect*
0 Rectangle with rounded corners*
0 $1 Rounding radius*
0 $2 $3 $4 $5 $6 $7 $8 $9 X,Y pos of 4 corners*
0 Add a 4 corners polygon primitive as box body*
4,1,4,$2,$3,$4,$5,$6,$7,$8,$9,$2,$3,0*
0 Add four circle primitives for the rounded corners*
1,1,$1+$1,$2,$3*
1,1,$1+$1,$4,$5*
1,1,$1+$1,$6,$7*
1,1,$1+$1,$8,$9*
0 Add four rect primitives between the rounded corners*
20,1,$1+$1,$2,$3,$4,$5,0*
20,1,$1+$1,$4,$5,$6,$7,0*
20,1,$1+$1,$6,$7,$8,$9,0*
20,1,$1+$1,$8,$9,$2,$3,0*%
G04 Aperture macros list end*
%ADD10R,1.700000X3.500000*%
%ADD11O,1.700000X3.600000*%
%ADD12O,1.700000X3.700000*%
%ADD13RoundRect,0.250000X-0.550000X0.550000X-0.550000X-0.550000X0.550000X-0.550000X0.550000X0.550000X0*%
%ADD14C,1.600000*%
%ADD15RoundRect,0.250000X-0.550000X-0.550000X0.550000X-0.550000X0.550000X0.550000X-0.550000X0.550000X0*%
%ADD16R,2.000000X2.000000*%
%ADD17C,2.000000*%
%ADD18R,3.200000X2.000000*%
%ADD19C,1.700000*%
%ADD20C,4.000000*%
%ADD21C,2.200000*%
%ADD22RoundRect,0.170000X0.680000X-0.680000X0.680000X0.680000X-0.680000X0.680000X-0.680000X-0.680000X0*%
%ADD23RoundRect,0.250000X0.550000X-0.550000X0.550000X0.550000X-0.550000X0.550000X-0.550000X-0.550000X0*%
G04 APERTURE END LIST*
D10*
%TO.C,U1*%
X183747985Y-107615500D03*
D11*
X181207985Y-107615500D03*
X178667985Y-107615500D03*
X176127985Y-107615500D03*
X173587985Y-107615500D03*
X171047985Y-107615500D03*
X168507985Y-107615500D03*
X168507985Y-90365500D03*
X171047985Y-90365500D03*
X173587985Y-90365500D03*
D12*
X176127985Y-90365500D03*
X178667985Y-90365500D03*
X181207985Y-90365500D03*
X183747985Y-90365500D03*
%TD*%
D13*
%TO.C,D4*%
X177500000Y-115680000D03*
D14*
X177500000Y-123300000D03*
%TD*%
D15*
%TO.C,D3*%
X146190000Y-127500000D03*
D14*
X153810000Y-127500000D03*
%TD*%
D16*
%TO.C,SW5*%
X123250000Y-97000000D03*
D17*
X123250000Y-102000000D03*
X123250000Y-99500000D03*
D18*
X130750000Y-93900000D03*
X130750000Y-105100000D03*
D17*
X137750000Y-102000000D03*
X137750000Y-97000000D03*
%TD*%
D19*
%TO.C,SW3*%
X144780000Y-119380000D03*
D20*
X149860000Y-119380000D03*
D19*
X154940000Y-119380000D03*
D21*
X152400000Y-114300000D03*
X146050000Y-116840000D03*
%TD*%
D19*
%TO.C,SW4*%
X163830000Y-119380000D03*
D20*
X168910000Y-119380000D03*
D19*
X173990000Y-119380000D03*
D21*
X171450000Y-114300000D03*
X165100000Y-116840000D03*
%TD*%
D22*
%TO.C,U2*%
X123500000Y-87810000D03*
D19*
X123500000Y-85270000D03*
X123500000Y-82730000D03*
X123500000Y-80190000D03*
%TD*%
%TO.C,SW2*%
X125730000Y-119380000D03*
D20*
X130810000Y-119380000D03*
D19*
X135890000Y-119380000D03*
D21*
X133350000Y-114300000D03*
X127000000Y-116840000D03*
%TD*%
D23*
%TO.C,D2*%
X122000000Y-122810000D03*
D14*
X122000000Y-115190000D03*
%TD*%
D19*
%TO.C,SW1*%
X144780000Y-100330000D03*
D20*
X149860000Y-100330000D03*
D19*
X154940000Y-100330000D03*
D21*
X152400000Y-95250000D03*
X146050000Y-97790000D03*
%TD*%
D15*
%TO.C,D1*%
X146190000Y-92000000D03*
D14*
X153810000Y-92000000D03*
%TD*%
M02*
