%TF.GenerationSoftware,KiCad,Pcbnew,10.0.3*%
%TF.CreationDate,2026-06-28T01:32:40-04:00*%
%TF.ProjectId,kicad-hackpad-schematic,6b696361-642d-4686-9163-6b7061642d73,rev?*%
%TF.SameCoordinates,Original*%
%TF.FileFunction,Legend,Bot*%
%TF.FilePolarity,Positive*%
%FSLAX46Y46*%
G04 Gerber Fmt 4.6, Leading zero omitted, Abs format (unit mm)*
G04 Created by KiCad (PCBNEW 10.0.3) date 2026-06-28 01:32:40*
%MOMM*%
%LPD*%
G01*
G04 APERTURE LIST*
%ADD10C,0.101600*%
%ADD11C,0.150000*%
%ADD12C,0.127000*%
%ADD13C,0.120000*%
%ADD14C,0.254000*%
%ADD15C,0.025400*%
G04 APERTURE END LIST*
D10*
X173104970Y-98313166D02*
X173824637Y-98313166D01*
X173824637Y-98313166D02*
X173909303Y-98355500D01*
X173909303Y-98355500D02*
X173951637Y-98397833D01*
X173951637Y-98397833D02*
X173993970Y-98482500D01*
X173993970Y-98482500D02*
X173993970Y-98651833D01*
X173993970Y-98651833D02*
X173951637Y-98736500D01*
X173951637Y-98736500D02*
X173909303Y-98778833D01*
X173909303Y-98778833D02*
X173824637Y-98821166D01*
X173824637Y-98821166D02*
X173104970Y-98821166D01*
X173993970Y-99710166D02*
X173993970Y-99202166D01*
X173993970Y-99456166D02*
X173104970Y-99456166D01*
X173104970Y-99456166D02*
X173231970Y-99371499D01*
X173231970Y-99371499D02*
X173316637Y-99286833D01*
X173316637Y-99286833D02*
X173358970Y-99202166D01*
D11*
X176173165Y-100135308D02*
X175173165Y-99468642D01*
X176173165Y-99468642D02*
X175173165Y-100135308D01*
X175173165Y-99087689D02*
X176173165Y-99087689D01*
X175458880Y-98659118D02*
X175458880Y-98182928D01*
X175173165Y-98754356D02*
X176173165Y-98421023D01*
X176173165Y-98421023D02*
X175173165Y-98087690D01*
X176173165Y-97563880D02*
X176173165Y-97373404D01*
X176173165Y-97373404D02*
X176125546Y-97278166D01*
X176125546Y-97278166D02*
X176030308Y-97182928D01*
X176030308Y-97182928D02*
X175839832Y-97135309D01*
X175839832Y-97135309D02*
X175506499Y-97135309D01*
X175506499Y-97135309D02*
X175316023Y-97182928D01*
X175316023Y-97182928D02*
X175220785Y-97278166D01*
X175220785Y-97278166D02*
X175173165Y-97373404D01*
X175173165Y-97373404D02*
X175173165Y-97563880D01*
X175173165Y-97563880D02*
X175220785Y-97659118D01*
X175220785Y-97659118D02*
X175316023Y-97754356D01*
X175316023Y-97754356D02*
X175506499Y-97801975D01*
X175506499Y-97801975D02*
X175839832Y-97801975D01*
X175839832Y-97801975D02*
X176030308Y-97754356D01*
X176030308Y-97754356D02*
X176125546Y-97659118D01*
X176125546Y-97659118D02*
X176173165Y-97563880D01*
X177220785Y-103752404D02*
X177173165Y-103609547D01*
X177173165Y-103609547D02*
X177173165Y-103371452D01*
X177173165Y-103371452D02*
X177220785Y-103276214D01*
X177220785Y-103276214D02*
X177268404Y-103228595D01*
X177268404Y-103228595D02*
X177363642Y-103180976D01*
X177363642Y-103180976D02*
X177458880Y-103180976D01*
X177458880Y-103180976D02*
X177554118Y-103228595D01*
X177554118Y-103228595D02*
X177601737Y-103276214D01*
X177601737Y-103276214D02*
X177649356Y-103371452D01*
X177649356Y-103371452D02*
X177696975Y-103561928D01*
X177696975Y-103561928D02*
X177744594Y-103657166D01*
X177744594Y-103657166D02*
X177792213Y-103704785D01*
X177792213Y-103704785D02*
X177887451Y-103752404D01*
X177887451Y-103752404D02*
X177982689Y-103752404D01*
X177982689Y-103752404D02*
X178077927Y-103704785D01*
X178077927Y-103704785D02*
X178125546Y-103657166D01*
X178125546Y-103657166D02*
X178173165Y-103561928D01*
X178173165Y-103561928D02*
X178173165Y-103323833D01*
X178173165Y-103323833D02*
X178125546Y-103180976D01*
X177220785Y-102371452D02*
X177173165Y-102466690D01*
X177173165Y-102466690D02*
X177173165Y-102657166D01*
X177173165Y-102657166D02*
X177220785Y-102752404D01*
X177220785Y-102752404D02*
X177316023Y-102800023D01*
X177316023Y-102800023D02*
X177696975Y-102800023D01*
X177696975Y-102800023D02*
X177792213Y-102752404D01*
X177792213Y-102752404D02*
X177839832Y-102657166D01*
X177839832Y-102657166D02*
X177839832Y-102466690D01*
X177839832Y-102466690D02*
X177792213Y-102371452D01*
X177792213Y-102371452D02*
X177696975Y-102323833D01*
X177696975Y-102323833D02*
X177601737Y-102323833D01*
X177601737Y-102323833D02*
X177506499Y-102800023D01*
X177220785Y-101514309D02*
X177173165Y-101609547D01*
X177173165Y-101609547D02*
X177173165Y-101800023D01*
X177173165Y-101800023D02*
X177220785Y-101895261D01*
X177220785Y-101895261D02*
X177316023Y-101942880D01*
X177316023Y-101942880D02*
X177696975Y-101942880D01*
X177696975Y-101942880D02*
X177792213Y-101895261D01*
X177792213Y-101895261D02*
X177839832Y-101800023D01*
X177839832Y-101800023D02*
X177839832Y-101609547D01*
X177839832Y-101609547D02*
X177792213Y-101514309D01*
X177792213Y-101514309D02*
X177696975Y-101466690D01*
X177696975Y-101466690D02*
X177601737Y-101466690D01*
X177601737Y-101466690D02*
X177506499Y-101942880D01*
X177220785Y-100657166D02*
X177173165Y-100752404D01*
X177173165Y-100752404D02*
X177173165Y-100942880D01*
X177173165Y-100942880D02*
X177220785Y-101038118D01*
X177220785Y-101038118D02*
X177316023Y-101085737D01*
X177316023Y-101085737D02*
X177696975Y-101085737D01*
X177696975Y-101085737D02*
X177792213Y-101038118D01*
X177792213Y-101038118D02*
X177839832Y-100942880D01*
X177839832Y-100942880D02*
X177839832Y-100752404D01*
X177839832Y-100752404D02*
X177792213Y-100657166D01*
X177792213Y-100657166D02*
X177696975Y-100609547D01*
X177696975Y-100609547D02*
X177601737Y-100609547D01*
X177601737Y-100609547D02*
X177506499Y-101085737D01*
X177173165Y-99752404D02*
X178173165Y-99752404D01*
X177220785Y-99752404D02*
X177173165Y-99847642D01*
X177173165Y-99847642D02*
X177173165Y-100038118D01*
X177173165Y-100038118D02*
X177220785Y-100133356D01*
X177220785Y-100133356D02*
X177268404Y-100180975D01*
X177268404Y-100180975D02*
X177363642Y-100228594D01*
X177363642Y-100228594D02*
X177649356Y-100228594D01*
X177649356Y-100228594D02*
X177744594Y-100180975D01*
X177744594Y-100180975D02*
X177792213Y-100133356D01*
X177792213Y-100133356D02*
X177839832Y-100038118D01*
X177839832Y-100038118D02*
X177839832Y-99847642D01*
X177839832Y-99847642D02*
X177792213Y-99752404D01*
X177220785Y-98561927D02*
X177173165Y-98419070D01*
X177173165Y-98419070D02*
X177173165Y-98180975D01*
X177173165Y-98180975D02*
X177220785Y-98085737D01*
X177220785Y-98085737D02*
X177268404Y-98038118D01*
X177268404Y-98038118D02*
X177363642Y-97990499D01*
X177363642Y-97990499D02*
X177458880Y-97990499D01*
X177458880Y-97990499D02*
X177554118Y-98038118D01*
X177554118Y-98038118D02*
X177601737Y-98085737D01*
X177601737Y-98085737D02*
X177649356Y-98180975D01*
X177649356Y-98180975D02*
X177696975Y-98371451D01*
X177696975Y-98371451D02*
X177744594Y-98466689D01*
X177744594Y-98466689D02*
X177792213Y-98514308D01*
X177792213Y-98514308D02*
X177887451Y-98561927D01*
X177887451Y-98561927D02*
X177982689Y-98561927D01*
X177982689Y-98561927D02*
X178077927Y-98514308D01*
X178077927Y-98514308D02*
X178125546Y-98466689D01*
X178125546Y-98466689D02*
X178173165Y-98371451D01*
X178173165Y-98371451D02*
X178173165Y-98133356D01*
X178173165Y-98133356D02*
X178125546Y-97990499D01*
X177839832Y-97704784D02*
X177839832Y-97323832D01*
X178173165Y-97561927D02*
X177316023Y-97561927D01*
X177316023Y-97561927D02*
X177220785Y-97514308D01*
X177220785Y-97514308D02*
X177173165Y-97419070D01*
X177173165Y-97419070D02*
X177173165Y-97323832D01*
X177839832Y-96561927D02*
X177173165Y-96561927D01*
X177839832Y-96990498D02*
X177316023Y-96990498D01*
X177316023Y-96990498D02*
X177220785Y-96942879D01*
X177220785Y-96942879D02*
X177173165Y-96847641D01*
X177173165Y-96847641D02*
X177173165Y-96704784D01*
X177173165Y-96704784D02*
X177220785Y-96609546D01*
X177220785Y-96609546D02*
X177268404Y-96561927D01*
X177173165Y-95657165D02*
X178173165Y-95657165D01*
X177220785Y-95657165D02*
X177173165Y-95752403D01*
X177173165Y-95752403D02*
X177173165Y-95942879D01*
X177173165Y-95942879D02*
X177220785Y-96038117D01*
X177220785Y-96038117D02*
X177268404Y-96085736D01*
X177268404Y-96085736D02*
X177363642Y-96133355D01*
X177363642Y-96133355D02*
X177649356Y-96133355D01*
X177649356Y-96133355D02*
X177744594Y-96085736D01*
X177744594Y-96085736D02*
X177792213Y-96038117D01*
X177792213Y-96038117D02*
X177839832Y-95942879D01*
X177839832Y-95942879D02*
X177839832Y-95752403D01*
X177839832Y-95752403D02*
X177792213Y-95657165D01*
X177173165Y-95180974D02*
X177839832Y-95180974D01*
X178173165Y-95180974D02*
X178125546Y-95228593D01*
X178125546Y-95228593D02*
X178077927Y-95180974D01*
X178077927Y-95180974D02*
X178125546Y-95133355D01*
X178125546Y-95133355D02*
X178173165Y-95180974D01*
X178173165Y-95180974D02*
X178077927Y-95180974D01*
X177173165Y-94561927D02*
X177220785Y-94657165D01*
X177220785Y-94657165D02*
X177268404Y-94704784D01*
X177268404Y-94704784D02*
X177363642Y-94752403D01*
X177363642Y-94752403D02*
X177649356Y-94752403D01*
X177649356Y-94752403D02*
X177744594Y-94704784D01*
X177744594Y-94704784D02*
X177792213Y-94657165D01*
X177792213Y-94657165D02*
X177839832Y-94561927D01*
X177839832Y-94561927D02*
X177839832Y-94419070D01*
X177839832Y-94419070D02*
X177792213Y-94323832D01*
X177792213Y-94323832D02*
X177744594Y-94276213D01*
X177744594Y-94276213D02*
X177649356Y-94228594D01*
X177649356Y-94228594D02*
X177363642Y-94228594D01*
X177363642Y-94228594D02*
X177268404Y-94276213D01*
X177268404Y-94276213D02*
X177220785Y-94323832D01*
X177220785Y-94323832D02*
X177173165Y-94419070D01*
X177173165Y-94419070D02*
X177173165Y-94561927D01*
%TO.C,U1*%
D12*
X165627985Y-105890500D02*
X165627985Y-92090500D01*
X167627985Y-90090500D02*
X184627985Y-90090500D01*
X180698715Y-94490500D02*
X180698715Y-103490500D01*
X180698715Y-103490500D02*
X188052015Y-103490500D01*
X184627985Y-107890500D02*
X167627985Y-107890500D01*
X186627075Y-92090500D02*
X186627075Y-105890500D01*
X188052015Y-94490500D02*
X180698715Y-94490500D01*
X188052015Y-103490500D02*
X188052015Y-94490500D01*
D13*
X165627985Y-92090500D02*
G75*
G02*
X167627985Y-90090500I2000000J0D01*
G01*
X167627985Y-107890500D02*
G75*
G02*
X165627985Y-105890500I44857J2044857D01*
G01*
X184627985Y-90090500D02*
G75*
G02*
X186627985Y-92090500I-44610J-2044610D01*
G01*
X186627985Y-105890500D02*
G75*
G02*
X184627985Y-107890500I-2044612J44612D01*
G01*
D14*
X185054985Y-109990500D02*
G75*
G02*
X184800985Y-109990500I-127000J0D01*
G01*
X184800985Y-109990500D02*
G75*
G02*
X185054985Y-109990500I127000J0D01*
G01*
D15*
X184689690Y-107878215D02*
X184738458Y-107875167D01*
X184787479Y-107871103D01*
X184689690Y-107878215D01*
X167606411Y-90101008D02*
X167557135Y-90102787D01*
X167508367Y-90105835D01*
X167459346Y-90109899D01*
X167410578Y-90115232D01*
X167361810Y-90121836D01*
X167313295Y-90129456D01*
X167265035Y-90138347D01*
X167217030Y-90148252D01*
X167606411Y-90101008D01*
%TD*%
M02*
